<mxfile host="app.diagrams.net" modified="2022-12-19T21:51:00.771Z" agent="5.0 (Windows)" etag="ZSH8jM8bx2ekn6QRASfs" version="20.7.4" type="github">
  <diagram id="G4Ipju4bLF8DtLiGqTVV" name="Sayfa -1">
    <mxGraphModel dx="3299" dy="2375" grid="1" gridSize="10" guides="1" tooltips="1" connect="1" arrows="1" fold="1" page="1" pageScale="1" pageWidth="827" pageHeight="1169" math="0" shadow="0">
      <root>
        <mxCell id="0" />
        <mxCell id="1" parent="0" />
        <mxCell id="iX-OTO_NNu1wzyV2xDbR-11" value="Abstract Word" style="swimlane;fontStyle=1;align=center;verticalAlign=top;childLayout=stackLayout;horizontal=1;startSize=26;horizontalStack=0;resizeParent=1;resizeParentMax=0;resizeLast=0;collapsible=1;marginBottom=0;" parent="1" vertex="1">
          <mxGeometry x="430" y="-70" width="360" height="372" as="geometry">
            <mxRectangle x="100" y="40" width="100" height="30" as="alternateBounds" />
          </mxGeometry>
        </mxCell>
        <mxCell id="iX-OTO_NNu1wzyV2xDbR-12" value="+ question: String&#xa;+ word: String&#xa;+ presentPoint: int&#xa;+ letterNumber: int&#xa;+ countert: int&#xa;+ openedIndexes: int[]&#xa;" style="text;strokeColor=none;fillColor=none;align=left;verticalAlign=top;spacingLeft=4;spacingRight=4;overflow=hidden;rotatable=0;points=[[0,0.5],[1,0.5]];portConstraint=eastwest;" parent="iX-OTO_NNu1wzyV2xDbR-11" vertex="1">
          <mxGeometry y="26" width="360" height="164" as="geometry" />
        </mxCell>
        <mxCell id="iX-OTO_NNu1wzyV2xDbR-13" value="" style="line;strokeWidth=1;fillColor=none;align=left;verticalAlign=middle;spacingTop=-1;spacingLeft=3;spacingRight=3;rotatable=0;labelPosition=right;points=[];portConstraint=eastwest;strokeColor=inherit;" parent="iX-OTO_NNu1wzyV2xDbR-11" vertex="1">
          <mxGeometry y="190" width="360" height="62" as="geometry" />
        </mxCell>
        <mxCell id="iX-OTO_NNu1wzyV2xDbR-14" value="&#xa;+showAnswer():&#xa;+showQuestion():&#xa;+ openedLetter(): int&#xa;+ giveRandomNumber(): int&#xa;+ randomOpen(): int&#xa;+ doesContain(int): int&#xa;" style="text;strokeColor=none;fillColor=none;align=left;verticalAlign=top;spacingLeft=4;spacingRight=4;overflow=hidden;rotatable=0;points=[[0,0.5],[1,0.5]];portConstraint=eastwest;" parent="iX-OTO_NNu1wzyV2xDbR-11" vertex="1">
          <mxGeometry y="252" width="360" height="120" as="geometry" />
        </mxCell>
        <mxCell id="iX-OTO_NNu1wzyV2xDbR-24" value="Game(main)" style="swimlane;fontStyle=1;align=center;verticalAlign=top;childLayout=stackLayout;horizontal=1;startSize=26;horizontalStack=0;resizeParent=1;resizeParentMax=0;resizeLast=0;collapsible=1;marginBottom=0;" parent="1" vertex="1">
          <mxGeometry x="810" y="-70" width="280" height="270" as="geometry">
            <mxRectangle x="230" y="510" width="100" height="30" as="alternateBounds" />
          </mxGeometry>
        </mxCell>
        <mxCell id="iX-OTO_NNu1wzyV2xDbR-25" value="+ fileName: String[]&#xa;+ path: Word[]" style="text;strokeColor=none;fillColor=none;align=left;verticalAlign=top;spacingLeft=4;spacingRight=4;overflow=hidden;rotatable=0;points=[[0,0.5],[1,0.5]];portConstraint=eastwest;" parent="iX-OTO_NNu1wzyV2xDbR-24" vertex="1">
          <mxGeometry y="26" width="280" height="114" as="geometry" />
        </mxCell>
        <mxCell id="iX-OTO_NNu1wzyV2xDbR-26" value="" style="line;strokeWidth=1;fillColor=none;align=left;verticalAlign=middle;spacingTop=-1;spacingLeft=3;spacingRight=3;rotatable=0;labelPosition=right;points=[];portConstraint=eastwest;strokeColor=inherit;" parent="iX-OTO_NNu1wzyV2xDbR-24" vertex="1">
          <mxGeometry y="140" width="280" height="8" as="geometry" />
        </mxCell>
        <mxCell id="iX-OTO_NNu1wzyV2xDbR-27" value="+ main()&#xa;+ displayMenu()" style="text;strokeColor=none;fillColor=none;align=left;verticalAlign=top;spacingLeft=4;spacingRight=4;overflow=hidden;rotatable=0;points=[[0,0.5],[1,0.5]];portConstraint=eastwest;" parent="iX-OTO_NNu1wzyV2xDbR-24" vertex="1">
          <mxGeometry y="148" width="280" height="122" as="geometry" />
        </mxCell>
        <mxCell id="iX-OTO_NNu1wzyV2xDbR-32" value="FourLetter" style="swimlane;fontStyle=1;align=center;verticalAlign=top;childLayout=stackLayout;horizontal=1;startSize=26;horizontalStack=0;resizeParent=1;resizeParentMax=0;resizeLast=0;collapsible=1;marginBottom=0;" parent="1" vertex="1">
          <mxGeometry x="-20" y="470" width="220" height="370" as="geometry">
            <mxRectangle x="230" y="510" width="100" height="30" as="alternateBounds" />
          </mxGeometry>
        </mxCell>
        <mxCell id="iX-OTO_NNu1wzyV2xDbR-33" value="+ question: String&#xa;+ word: String&#xa;+ presentPoint: int&#xa;+ letterNumber: int&#xa;+ countert: int&#xa;+ openedIndexes: int[]&#xa;&#xa;&#xa;" style="text;strokeColor=none;fillColor=none;align=left;verticalAlign=top;spacingLeft=4;spacingRight=4;overflow=hidden;rotatable=0;points=[[0,0.5],[1,0.5]];portConstraint=eastwest;" parent="iX-OTO_NNu1wzyV2xDbR-32" vertex="1">
          <mxGeometry y="26" width="220" height="194" as="geometry" />
        </mxCell>
        <mxCell id="iX-OTO_NNu1wzyV2xDbR-34" value="" style="line;strokeWidth=1;fillColor=none;align=left;verticalAlign=middle;spacingTop=-1;spacingLeft=3;spacingRight=3;rotatable=0;labelPosition=right;points=[];portConstraint=eastwest;strokeColor=inherit;" parent="iX-OTO_NNu1wzyV2xDbR-32" vertex="1">
          <mxGeometry y="220" width="220" height="8" as="geometry" />
        </mxCell>
        <mxCell id="iX-OTO_NNu1wzyV2xDbR-35" value="&#xa;+showAnswer():&#xa;+showQuestion():&#xa;+ openedLetter(): int&#xa;+ giveRandomNumber(): int&#xa;+ randomOpen(): int&#xa;+ doesContain(int): int&#xa;&#xa;&#xa;" style="text;strokeColor=none;fillColor=none;align=left;verticalAlign=top;spacingLeft=4;spacingRight=4;overflow=hidden;rotatable=0;points=[[0,0.5],[1,0.5]];portConstraint=eastwest;" parent="iX-OTO_NNu1wzyV2xDbR-32" vertex="1">
          <mxGeometry y="228" width="220" height="142" as="geometry" />
        </mxCell>
        <mxCell id="iX-OTO_NNu1wzyV2xDbR-36" value="Player" style="swimlane;fontStyle=1;align=center;verticalAlign=top;childLayout=stackLayout;horizontal=1;startSize=26;horizontalStack=0;resizeParent=1;resizeParentMax=0;resizeLast=0;collapsible=1;marginBottom=0;" parent="1" vertex="1">
          <mxGeometry x="1110" y="-70" width="180" height="148" as="geometry">
            <mxRectangle x="230" y="510" width="100" height="30" as="alternateBounds" />
          </mxGeometry>
        </mxCell>
        <mxCell id="iX-OTO_NNu1wzyV2xDbR-37" value="+ name: String&#xa;+ point: int&#xa;&#xa;" style="text;strokeColor=none;fillColor=none;align=left;verticalAlign=top;spacingLeft=4;spacingRight=4;overflow=hidden;rotatable=0;points=[[0,0.5],[1,0.5]];portConstraint=eastwest;" parent="iX-OTO_NNu1wzyV2xDbR-36" vertex="1">
          <mxGeometry y="26" width="180" height="114" as="geometry" />
        </mxCell>
        <mxCell id="iX-OTO_NNu1wzyV2xDbR-38" value="" style="line;strokeWidth=1;fillColor=none;align=left;verticalAlign=middle;spacingTop=-1;spacingLeft=3;spacingRight=3;rotatable=0;labelPosition=right;points=[];portConstraint=eastwest;strokeColor=inherit;" parent="iX-OTO_NNu1wzyV2xDbR-36" vertex="1">
          <mxGeometry y="140" width="180" height="8" as="geometry" />
        </mxCell>
        <mxCell id="9QFWOdV-31TfVL82Q7nz-3" value="" style="html=1;verticalAlign=bottom;labelBackgroundColor=none;endArrow=open;endFill=0;dashed=1;rounded=0;entryX=0.508;entryY=1.05;entryDx=0;entryDy=0;entryPerimeter=0;exitX=0.473;exitY=-0.003;exitDx=0;exitDy=0;exitPerimeter=0;" edge="1" parent="1" source="iX-OTO_NNu1wzyV2xDbR-32" target="iX-OTO_NNu1wzyV2xDbR-14">
          <mxGeometry width="160" relative="1" as="geometry">
            <mxPoint x="120" y="410" as="sourcePoint" />
            <mxPoint x="280" y="410" as="targetPoint" />
          </mxGeometry>
        </mxCell>
        <mxCell id="9QFWOdV-31TfVL82Q7nz-4" value="FiveLetter" style="swimlane;fontStyle=1;align=center;verticalAlign=top;childLayout=stackLayout;horizontal=1;startSize=26;horizontalStack=0;resizeParent=1;resizeParentMax=0;resizeLast=0;collapsible=1;marginBottom=0;" vertex="1" parent="1">
          <mxGeometry x="210" y="470" width="220" height="370" as="geometry">
            <mxRectangle x="230" y="510" width="100" height="30" as="alternateBounds" />
          </mxGeometry>
        </mxCell>
        <mxCell id="9QFWOdV-31TfVL82Q7nz-5" value="+ question: String&#xa;+ word: String&#xa;+ presentPoint: int&#xa;+ letterNumber: int&#xa;+ countert: int&#xa;+ openedIndexes: int[]&#xa;&#xa;&#xa;" style="text;strokeColor=none;fillColor=none;align=left;verticalAlign=top;spacingLeft=4;spacingRight=4;overflow=hidden;rotatable=0;points=[[0,0.5],[1,0.5]];portConstraint=eastwest;" vertex="1" parent="9QFWOdV-31TfVL82Q7nz-4">
          <mxGeometry y="26" width="220" height="194" as="geometry" />
        </mxCell>
        <mxCell id="9QFWOdV-31TfVL82Q7nz-6" value="" style="line;strokeWidth=1;fillColor=none;align=left;verticalAlign=middle;spacingTop=-1;spacingLeft=3;spacingRight=3;rotatable=0;labelPosition=right;points=[];portConstraint=eastwest;strokeColor=inherit;" vertex="1" parent="9QFWOdV-31TfVL82Q7nz-4">
          <mxGeometry y="220" width="220" height="8" as="geometry" />
        </mxCell>
        <mxCell id="9QFWOdV-31TfVL82Q7nz-7" value="&#xa;+showAnswer():&#xa;+showQuestion():&#xa;+ openedLetter(): int&#xa;+ giveRandomNumber(): int&#xa;+ randomOpen(): int&#xa;+ doesContain(int): int&#xa;&#xa;&#xa;" style="text;strokeColor=none;fillColor=none;align=left;verticalAlign=top;spacingLeft=4;spacingRight=4;overflow=hidden;rotatable=0;points=[[0,0.5],[1,0.5]];portConstraint=eastwest;" vertex="1" parent="9QFWOdV-31TfVL82Q7nz-4">
          <mxGeometry y="228" width="220" height="142" as="geometry" />
        </mxCell>
        <mxCell id="9QFWOdV-31TfVL82Q7nz-8" value="SixLetter" style="swimlane;fontStyle=1;align=center;verticalAlign=top;childLayout=stackLayout;horizontal=1;startSize=26;horizontalStack=0;resizeParent=1;resizeParentMax=0;resizeLast=0;collapsible=1;marginBottom=0;" vertex="1" parent="1">
          <mxGeometry x="440" y="470" width="220" height="370" as="geometry">
            <mxRectangle x="230" y="510" width="100" height="30" as="alternateBounds" />
          </mxGeometry>
        </mxCell>
        <mxCell id="9QFWOdV-31TfVL82Q7nz-9" value="+ question: String&#xa;+ word: String&#xa;+ presentPoint: int&#xa;+ letterNumber: int&#xa;+ countert: int&#xa;+ openedIndexes: int[]&#xa;&#xa;&#xa;" style="text;strokeColor=none;fillColor=none;align=left;verticalAlign=top;spacingLeft=4;spacingRight=4;overflow=hidden;rotatable=0;points=[[0,0.5],[1,0.5]];portConstraint=eastwest;" vertex="1" parent="9QFWOdV-31TfVL82Q7nz-8">
          <mxGeometry y="26" width="220" height="194" as="geometry" />
        </mxCell>
        <mxCell id="9QFWOdV-31TfVL82Q7nz-10" value="" style="line;strokeWidth=1;fillColor=none;align=left;verticalAlign=middle;spacingTop=-1;spacingLeft=3;spacingRight=3;rotatable=0;labelPosition=right;points=[];portConstraint=eastwest;strokeColor=inherit;" vertex="1" parent="9QFWOdV-31TfVL82Q7nz-8">
          <mxGeometry y="220" width="220" height="8" as="geometry" />
        </mxCell>
        <mxCell id="9QFWOdV-31TfVL82Q7nz-11" value="&#xa;+showAnswer():&#xa;+showQuestion():&#xa;+ openedLetter(): int&#xa;+ giveRandomNumber(): int&#xa;+ randomOpen(): int&#xa;+ doesContain(int): int&#xa;&#xa;&#xa;" style="text;strokeColor=none;fillColor=none;align=left;verticalAlign=top;spacingLeft=4;spacingRight=4;overflow=hidden;rotatable=0;points=[[0,0.5],[1,0.5]];portConstraint=eastwest;" vertex="1" parent="9QFWOdV-31TfVL82Q7nz-8">
          <mxGeometry y="228" width="220" height="142" as="geometry" />
        </mxCell>
        <mxCell id="9QFWOdV-31TfVL82Q7nz-12" value="SevenLetter" style="swimlane;fontStyle=1;align=center;verticalAlign=top;childLayout=stackLayout;horizontal=1;startSize=26;horizontalStack=0;resizeParent=1;resizeParentMax=0;resizeLast=0;collapsible=1;marginBottom=0;" vertex="1" parent="1">
          <mxGeometry x="670" y="470" width="220" height="370" as="geometry">
            <mxRectangle x="230" y="510" width="100" height="30" as="alternateBounds" />
          </mxGeometry>
        </mxCell>
        <mxCell id="9QFWOdV-31TfVL82Q7nz-32" value="" style="html=1;verticalAlign=bottom;labelBackgroundColor=none;endArrow=open;endFill=0;dashed=1;rounded=0;exitX=0.5;exitY=0;exitDx=0;exitDy=0;" edge="1" parent="9QFWOdV-31TfVL82Q7nz-12" source="9QFWOdV-31TfVL82Q7nz-20">
          <mxGeometry width="160" relative="1" as="geometry">
            <mxPoint x="240" y="-80" as="sourcePoint" />
            <mxPoint x="-50" y="-160" as="targetPoint" />
          </mxGeometry>
        </mxCell>
        <mxCell id="9QFWOdV-31TfVL82Q7nz-13" value="+ question: String&#xa;+ word: String&#xa;+ presentPoint: int&#xa;+ letterNumber: int&#xa;+ countert: int&#xa;+ openedIndexes: int[]&#xa;&#xa;&#xa;" style="text;strokeColor=none;fillColor=none;align=left;verticalAlign=top;spacingLeft=4;spacingRight=4;overflow=hidden;rotatable=0;points=[[0,0.5],[1,0.5]];portConstraint=eastwest;" vertex="1" parent="9QFWOdV-31TfVL82Q7nz-12">
          <mxGeometry y="26" width="220" height="194" as="geometry" />
        </mxCell>
        <mxCell id="9QFWOdV-31TfVL82Q7nz-14" value="" style="line;strokeWidth=1;fillColor=none;align=left;verticalAlign=middle;spacingTop=-1;spacingLeft=3;spacingRight=3;rotatable=0;labelPosition=right;points=[];portConstraint=eastwest;strokeColor=inherit;" vertex="1" parent="9QFWOdV-31TfVL82Q7nz-12">
          <mxGeometry y="220" width="220" height="8" as="geometry" />
        </mxCell>
        <mxCell id="9QFWOdV-31TfVL82Q7nz-15" value="&#xa;+showAnswer():&#xa;+showQuestion():&#xa;+ openedLetter(): int&#xa;+ giveRandomNumber(): int&#xa;+ randomOpen(): int&#xa;+ doesContain(int): int&#xa;&#xa;&#xa;" style="text;strokeColor=none;fillColor=none;align=left;verticalAlign=top;spacingLeft=4;spacingRight=4;overflow=hidden;rotatable=0;points=[[0,0.5],[1,0.5]];portConstraint=eastwest;" vertex="1" parent="9QFWOdV-31TfVL82Q7nz-12">
          <mxGeometry y="228" width="220" height="142" as="geometry" />
        </mxCell>
        <mxCell id="9QFWOdV-31TfVL82Q7nz-16" value="EightLetter" style="swimlane;fontStyle=1;align=center;verticalAlign=top;childLayout=stackLayout;horizontal=1;startSize=26;horizontalStack=0;resizeParent=1;resizeParentMax=0;resizeLast=0;collapsible=1;marginBottom=0;" vertex="1" parent="1">
          <mxGeometry x="900" y="470" width="220" height="370" as="geometry">
            <mxRectangle x="230" y="510" width="100" height="30" as="alternateBounds" />
          </mxGeometry>
        </mxCell>
        <mxCell id="9QFWOdV-31TfVL82Q7nz-17" value="+ question: String&#xa;+ word: String&#xa;+ presentPoint: int&#xa;+ letterNumber: int&#xa;+ countert: int&#xa;+ openedIndexes: int[]&#xa;&#xa;&#xa;" style="text;strokeColor=none;fillColor=none;align=left;verticalAlign=top;spacingLeft=4;spacingRight=4;overflow=hidden;rotatable=0;points=[[0,0.5],[1,0.5]];portConstraint=eastwest;" vertex="1" parent="9QFWOdV-31TfVL82Q7nz-16">
          <mxGeometry y="26" width="220" height="194" as="geometry" />
        </mxCell>
        <mxCell id="9QFWOdV-31TfVL82Q7nz-18" value="" style="line;strokeWidth=1;fillColor=none;align=left;verticalAlign=middle;spacingTop=-1;spacingLeft=3;spacingRight=3;rotatable=0;labelPosition=right;points=[];portConstraint=eastwest;strokeColor=inherit;" vertex="1" parent="9QFWOdV-31TfVL82Q7nz-16">
          <mxGeometry y="220" width="220" height="8" as="geometry" />
        </mxCell>
        <mxCell id="9QFWOdV-31TfVL82Q7nz-19" value="&#xa;+showAnswer():&#xa;+showQuestion():&#xa;+ openedLetter(): int&#xa;+ giveRandomNumber(): int&#xa;+ randomOpen(): int&#xa;+ doesContain(int): int&#xa;&#xa;&#xa;" style="text;strokeColor=none;fillColor=none;align=left;verticalAlign=top;spacingLeft=4;spacingRight=4;overflow=hidden;rotatable=0;points=[[0,0.5],[1,0.5]];portConstraint=eastwest;" vertex="1" parent="9QFWOdV-31TfVL82Q7nz-16">
          <mxGeometry y="228" width="220" height="142" as="geometry" />
        </mxCell>
        <mxCell id="9QFWOdV-31TfVL82Q7nz-20" value="NineLetter" style="swimlane;fontStyle=1;align=center;verticalAlign=top;childLayout=stackLayout;horizontal=1;startSize=26;horizontalStack=0;resizeParent=1;resizeParentMax=0;resizeLast=0;collapsible=1;marginBottom=0;" vertex="1" parent="1">
          <mxGeometry x="1131" y="470" width="220" height="370" as="geometry">
            <mxRectangle x="230" y="510" width="100" height="30" as="alternateBounds" />
          </mxGeometry>
        </mxCell>
        <mxCell id="9QFWOdV-31TfVL82Q7nz-21" value="+ question: String&#xa;+ word: String&#xa;+ presentPoint: int&#xa;+ letterNumber: int&#xa;+ countert: int&#xa;+ openedIndexes: int[]&#xa;&#xa;&#xa;" style="text;strokeColor=none;fillColor=none;align=left;verticalAlign=top;spacingLeft=4;spacingRight=4;overflow=hidden;rotatable=0;points=[[0,0.5],[1,0.5]];portConstraint=eastwest;" vertex="1" parent="9QFWOdV-31TfVL82Q7nz-20">
          <mxGeometry y="26" width="220" height="194" as="geometry" />
        </mxCell>
        <mxCell id="9QFWOdV-31TfVL82Q7nz-22" value="" style="line;strokeWidth=1;fillColor=none;align=left;verticalAlign=middle;spacingTop=-1;spacingLeft=3;spacingRight=3;rotatable=0;labelPosition=right;points=[];portConstraint=eastwest;strokeColor=inherit;" vertex="1" parent="9QFWOdV-31TfVL82Q7nz-20">
          <mxGeometry y="220" width="220" height="8" as="geometry" />
        </mxCell>
        <mxCell id="9QFWOdV-31TfVL82Q7nz-23" value="&#xa;+showAnswer():&#xa;+showQuestion():&#xa;+ openedLetter(): int&#xa;+ giveRandomNumber(): int&#xa;+ randomOpen(): int&#xa;+ doesContain(int): int&#xa;&#xa;&#xa;" style="text;strokeColor=none;fillColor=none;align=left;verticalAlign=top;spacingLeft=4;spacingRight=4;overflow=hidden;rotatable=0;points=[[0,0.5],[1,0.5]];portConstraint=eastwest;" vertex="1" parent="9QFWOdV-31TfVL82Q7nz-20">
          <mxGeometry y="228" width="220" height="142" as="geometry" />
        </mxCell>
        <mxCell id="9QFWOdV-31TfVL82Q7nz-24" value="TenLetter" style="swimlane;fontStyle=1;align=center;verticalAlign=top;childLayout=stackLayout;horizontal=1;startSize=26;horizontalStack=0;resizeParent=1;resizeParentMax=0;resizeLast=0;collapsible=1;marginBottom=0;" vertex="1" parent="1">
          <mxGeometry x="1360" y="470" width="220" height="370" as="geometry">
            <mxRectangle x="230" y="510" width="100" height="30" as="alternateBounds" />
          </mxGeometry>
        </mxCell>
        <mxCell id="9QFWOdV-31TfVL82Q7nz-25" value="+ question: String&#xa;+ word: String&#xa;+ presentPoint: int&#xa;+ letterNumber: int&#xa;+ countert: int&#xa;+ openedIndexes: int[]&#xa;&#xa;&#xa;" style="text;strokeColor=none;fillColor=none;align=left;verticalAlign=top;spacingLeft=4;spacingRight=4;overflow=hidden;rotatable=0;points=[[0,0.5],[1,0.5]];portConstraint=eastwest;" vertex="1" parent="9QFWOdV-31TfVL82Q7nz-24">
          <mxGeometry y="26" width="220" height="194" as="geometry" />
        </mxCell>
        <mxCell id="9QFWOdV-31TfVL82Q7nz-26" value="" style="line;strokeWidth=1;fillColor=none;align=left;verticalAlign=middle;spacingTop=-1;spacingLeft=3;spacingRight=3;rotatable=0;labelPosition=right;points=[];portConstraint=eastwest;strokeColor=inherit;" vertex="1" parent="9QFWOdV-31TfVL82Q7nz-24">
          <mxGeometry y="220" width="220" height="8" as="geometry" />
        </mxCell>
        <mxCell id="9QFWOdV-31TfVL82Q7nz-27" value="&#xa;+showAnswer():&#xa;+showQuestion():&#xa;+ openedLetter(): int&#xa;+ giveRandomNumber(): int&#xa;+ randomOpen(): int&#xa;+ doesContain(int): int&#xa;&#xa;&#xa;" style="text;strokeColor=none;fillColor=none;align=left;verticalAlign=top;spacingLeft=4;spacingRight=4;overflow=hidden;rotatable=0;points=[[0,0.5],[1,0.5]];portConstraint=eastwest;" vertex="1" parent="9QFWOdV-31TfVL82Q7nz-24">
          <mxGeometry y="228" width="220" height="142" as="geometry" />
        </mxCell>
        <mxCell id="9QFWOdV-31TfVL82Q7nz-28" value="" style="html=1;verticalAlign=bottom;labelBackgroundColor=none;endArrow=open;endFill=0;dashed=1;rounded=0;exitX=0.5;exitY=0;exitDx=0;exitDy=0;" edge="1" parent="1" source="9QFWOdV-31TfVL82Q7nz-4">
          <mxGeometry width="160" relative="1" as="geometry">
            <mxPoint x="141.17999999999995" y="510.8900000000003" as="sourcePoint" />
            <mxPoint x="620" y="310" as="targetPoint" />
          </mxGeometry>
        </mxCell>
        <mxCell id="9QFWOdV-31TfVL82Q7nz-29" value="" style="html=1;verticalAlign=bottom;labelBackgroundColor=none;endArrow=open;endFill=0;dashed=1;rounded=0;exitX=0.5;exitY=0;exitDx=0;exitDy=0;" edge="1" parent="1" source="9QFWOdV-31TfVL82Q7nz-12">
          <mxGeometry width="160" relative="1" as="geometry">
            <mxPoint x="269.99999999999994" y="540.8900000000003" as="sourcePoint" />
            <mxPoint x="620" y="310" as="targetPoint" />
          </mxGeometry>
        </mxCell>
        <mxCell id="9QFWOdV-31TfVL82Q7nz-30" value="" style="html=1;verticalAlign=bottom;labelBackgroundColor=none;endArrow=open;endFill=0;dashed=1;rounded=0;exitX=0.5;exitY=0;exitDx=0;exitDy=0;" edge="1" parent="1" source="9QFWOdV-31TfVL82Q7nz-8">
          <mxGeometry width="160" relative="1" as="geometry">
            <mxPoint x="285.5899999999999" y="540.8900000000003" as="sourcePoint" />
            <mxPoint x="620" y="310" as="targetPoint" />
          </mxGeometry>
        </mxCell>
        <mxCell id="9QFWOdV-31TfVL82Q7nz-31" value="" style="html=1;verticalAlign=bottom;labelBackgroundColor=none;endArrow=open;endFill=0;dashed=1;rounded=0;exitX=0.5;exitY=0;exitDx=0;exitDy=0;" edge="1" parent="1" source="9QFWOdV-31TfVL82Q7nz-16">
          <mxGeometry width="160" relative="1" as="geometry">
            <mxPoint x="920" y="440" as="sourcePoint" />
            <mxPoint x="620" y="310" as="targetPoint" />
          </mxGeometry>
        </mxCell>
        <mxCell id="9QFWOdV-31TfVL82Q7nz-33" value="" style="html=1;verticalAlign=bottom;labelBackgroundColor=none;endArrow=open;endFill=0;dashed=1;rounded=0;exitX=0.5;exitY=0;exitDx=0;exitDy=0;" edge="1" parent="1" source="9QFWOdV-31TfVL82Q7nz-24">
          <mxGeometry width="160" relative="1" as="geometry">
            <mxPoint x="1390" y="450" as="sourcePoint" />
            <mxPoint x="630" y="320" as="targetPoint" />
          </mxGeometry>
        </mxCell>
      </root>
    </mxGraphModel>
  </diagram>
</mxfile>
